<?xml version="1.0" encoding="iso-8859-1"?>
<!-- Generator: Adobe Illustrator 19.0.0, SVG Export Plug-In . SVG Version: 6.00 Build 0)  -->
<svg xmlns="http://www.w3.org/2000/svg" xmlns:xlink="http://www.w3.org/1999/xlink" version="1.1" id="Capa_1" x="0px" y="0px" viewBox="0 0 512.145 512.145" style="enable-background:new 0 0 512.145 512.145;" xml:space="preserve" width="512px" height="512px">
<g>
	<g>
		<g>
			<path d="M512.085,128.069c-0.133-35.346-28.894-63.892-64.24-63.759c-25.145,0.094-47.905,14.904-58.176,37.855l-54.64-9.136     l-5.344,31.568l54.912,9.168c2.137,23.81,17.366,44.444,39.488,53.504l-15.584,117.552     c-32.099,3.773-56.321,30.928-56.416,63.248v0.24l-184.464,48.64c-9.839-17.54-27.385-29.403-47.328-32L87.621,123.461     c15.543-6.19,28.053-18.207,34.864-33.488l49.456,8.256l5.264-31.552l-49.696-8.304C124.488,23.245,93.561-2.783,58.433,0.239     C23.305,3.26-2.723,34.186,0.299,69.314c2.577,29.962,25.715,54.062,55.546,57.859l32.704,261.44     c-32.869,12.999-48.978,50.182-35.979,83.051c12.999,32.869,50.182,48.978,83.051,35.979     c24.441-9.666,40.488-33.291,40.464-59.574v-0.24l184.464-48.64c17.182,30.788,56.069,41.818,86.857,24.637     c30.788-17.182,41.818-56.069,24.637-86.857c-7.105-12.732-18.355-22.648-31.878-28.1l15.584-117.552     C487.816,187.507,511.995,160.362,512.085,128.069z M64.085,96.069c-17.673,0-32-14.327-32-32s14.327-32,32-32s32,14.327,32,32     S81.758,96.069,64.085,96.069z M112.085,480.069c-17.673,0-32-14.327-32-32c0-17.673,14.327-32,32-32s32,14.327,32,32     C144.085,465.742,129.758,480.069,112.085,480.069z M448.085,368.069c0,17.673-14.327,32-32,32c-17.673,0-32-14.327-32-32     c0-17.673,14.327-32,32-32C433.758,336.069,448.085,350.396,448.085,368.069z M416.085,128.069c0-17.673,14.327-32,32-32     c17.673,0,32,14.327,32,32s-14.327,32-32,32C430.412,160.069,416.085,145.742,416.085,128.069z" fill="#999999"/>
			<rect x="269.047" y="84.899" transform="matrix(0.9864 0.1646 -0.1646 0.9864 20.4913 -45.5342)" width="32" height="32" fill="#999999"/>
			<rect x="205.844" y="74.36" transform="matrix(0.9863 0.1648 -0.1648 0.9863 17.9183 -35.3141)" width="32" height="32" fill="#999999"/>
		</g>
	</g>
</g>
<g>
</g>
<g>
</g>
<g>
</g>
<g>
</g>
<g>
</g>
<g>
</g>
<g>
</g>
<g>
</g>
<g>
</g>
<g>
</g>
<g>
</g>
<g>
</g>
<g>
</g>
<g>
</g>
<g>
</g>
</svg>
