<?xml version="1.0"?>
<svg xmlns="http://www.w3.org/2000/svg" height="512px" viewBox="-18 -106 597.33331 597" width="512px"><path d="m548.75 144.332031c-6.210938 0-11.25 5.039063-11.25 11.25v51.25h-515v-201.25c0-6.210937-5.039062-11.25-11.25-11.25s-11.25 5.039063-11.25 11.25v362.5c0 6.210938 5.039062 11.25 11.25 11.25s11.25-5.039062 11.25-11.25v-76.25h515v76.25c0 6.210938 5.039062 11.25 11.25 11.25s11.25-5.039062 11.25-11.25v-212.5c0-6.210937-5.039062-11.25-11.25-11.25zm-526.25 125v-40h515v40zm0 0" fill="#999999"/><path d="m117.125 191.832031c33.828125 0 61.25-27.421875 61.25-61.25s-27.421875-61.25-61.25-61.25-61.25 27.421875-61.25 61.25c.039062 33.816407 27.441406 61.210938 61.25 61.25zm0-100c21.398438 0 38.75 17.351563 38.75 38.75 0 21.402344-17.351562 38.75-38.75 38.75-21.402344 0-38.75-17.347656-38.75-38.75.023438-21.390625 17.359375-38.722656 38.75-38.75zm0 0" fill="#999999"/><path d="m209.554688 191.832031h287.5c6.21875 0 11.25-5.039062 11.25-11.25-.070313-68.3125-55.433594-123.671875-123.75-123.75h-175c-6.210938 0-11.25 5.039063-11.25 11.25v112.5c0 6.210938 5.039062 11.25 11.25 11.25zm11.25-112.5h163.75c51.542968.070313 94.835937 38.785157 100.625 90h-264.375zm0 0" fill="#999999"/></svg>
